# xmcd
#
# Track frame offsets: 
#        150
#        11351
#        24541
#        36468
#        47252
#        56470
#        68781
#        80138
#        92126
#        101341
#        111237
#        123277
#        132307
#        143102
#        155036
#        165504
#        183902
#        197471
#        209074
#        219656
#        230151
#        241215
#        252505
#        262809
#        272605
#        282326
#        294271
#        306639
#        316803
#        331060
#        343956
#
# Disc length: 4737 seconds
#
# Revision: 3
# Processed by: cddbd v1.5.2PL0 Copyright (c) Steve Scherf et al.
# Submitted via: ExactAudioCopy v1.0b1
#
DISCID=cc127f1f
DTITLE=Various Artist - Dim Lights Thick Smoke 1965
DYEAR=2011
DGENRE=Country
TTITLE0=Roger Miller - King Of The Road
TTITLE1=Carl Belew - Crystal Chandelier
TTITLE2=Del Reeves - Girl On The Billboard
TTITLE3=Porter Wagoner - Green, Green Grass Of Home
TTITLE4=Norma Jean - I Wouldn't Buy A Used Car From Him
TTITLE5=Stonewall Jackson - I Washed My Hands In Muddy Water
TTITLE6=Marty Robbins - Ribbon Of Darkness
TTITLE7=Eddy Arnold - Make The World Go Away
TTITLE8=Chet Atkins - Yakety Axe
TTITLE9=Buck Owens - I've Got A Tiger By The Tail
TTITLE10=Loretta Lynn - Blue Kentucky Girl
TTITLE11=Goerge Jones - Love Bug
TTITLE12=Lefty Frizzell - She's Gone, Gone, Gone
TTITLE13=Bobby Bare - It's Alright
TTITLE14=Warner Mack - The Bridge Washed Out
TTITLE15=Johnny Bond - Ten Little Bottles
TTITLE16=Dick Curless - A Tombstone Every Mile
TTITLE17=Roy Drusky and Priscilla Mitchell - Yes Mr. Peters
TTITLE18=The Statler Brothers - Flowers On The Wall
TTITLE19=Johnny Paycheck - A-11
TTITLE20=Jimmy Dickens - May The Bird Of Paradise Fly Up Your Nose
TTITLE21=Merle Haggard - (My Friends Are Gonna Be) Strangers
TTITLE22=Roger Miller - Kansas City Star
TTITLE23=Buck Owens - Before You Go
TTITLE24=Dave Dudley - Truck Drivin' Son Of A Gun
TTITLE25=Ernest Tubb - Waltz Across Texas
TTITLE26=Charley Pride - Snakes Crawl At Night
TTITLE27=Jim Reeves - Is It Really Over
TTITLE28=Johnny Wright - Hello Vietnam
TTITLE29=George Jones - Things Have Gone To Pieces
TTITLE30=Leon Payne - Things Have Gone To Pieces
EXTD=
EXTT0=
EXTT1=
EXTT2=
EXTT3=
EXTT4=
EXTT5=
EXTT6=
EXTT7=
EXTT8=
EXTT9=
EXTT10=
EXTT11=
EXTT12=
EXTT13=
EXTT14=
EXTT15=
EXTT16=
EXTT17=
EXTT18=
EXTT19=
EXTT20=
EXTT21=
EXTT22=
EXTT23=
EXTT24=
EXTT25=
EXTT26=
EXTT27=
EXTT28=
EXTT29=
EXTT30=
PLAYORDER=
